<?xml version="1.0" encoding="utf-8"?>
<!-- Generator: Adobe Illustrator 21.0.2, SVG Export Plug-In . SVG Version: 6.00 Build 0)  -->
<svg version="1.1" id="Calque_1" xmlns="http://www.w3.org/2000/svg" xmlns:xlink="http://www.w3.org/1999/xlink" x="0px" y="0px"
	 viewBox="0 0 24 24" style="enable-background:new 0 0 24 24;" xml:space="preserve">
<style type="text/css">
	.st0{fill:#FFFFFF;}
</style>
<path class="st0" d="M2,3h8c0-1.1,0.9-2,2-2s2,0.9,2,2h8v2h-1v11h-5.8l1.8,6h-2l-1.8-6h-2.5L9,22H7l1.8-6H3V5H2V3 M5,5v9h14V5H5
	 M11.9,11.8c-0.1,0.1-0.2,0.1-0.4,0.1c-0.3,0-0.5-0.2-0.5-0.5v-4C11,7.2,11.2,7,11.5,7c0.1,0,0.3,0.1,0.4,0.2l1.4,1.4
	c0.3,0.3,0.6,0.6,0.6,1s-0.3,0.6-0.6,1L11.9,11.8z"/>
</svg>
