<?xml version="1.0" encoding="utf-8"?>
<!-- Generator: Adobe Illustrator 21.0.2, SVG Export Plug-In . SVG Version: 6.00 Build 0)  -->
<svg version="1.1" id="Calque_1" xmlns="http://www.w3.org/2000/svg" xmlns:xlink="http://www.w3.org/1999/xlink" x="0px" y="0px"
	 viewBox="0 0 24 24" style="enable-background:new 0 0 24 24;" xml:space="preserve">
<style type="text/css">
	.st0{fill:#FFFFFF;}
</style>
<path class="st0" d="M12,2.3c2.4,0,4.4,1.7,4.9,4C18.6,6.5,20,7.9,20,9.6c0,1.8-1.5,3.3-3.3,3.3H8c-2.2,0-4-1.8-4-4
	c0-2.1,1.6-3.8,3.6-4C8.4,3.4,10.1,2.3,12,2.3 M9,6.1c-1,1.2-0.9,2.9,0.2,4c0.6,0.5,1.3,0.9,2.1,0.9v1.2l1.9-1.9l-1.9-1.9v1.2
	c-0.4,0-0.9-0.2-1.2-0.5C9.6,8.6,9.5,7.7,10,7.1L9,6.1 M10.1,5.6l1,1L12,7.5V6.3c0.4,0,0.9,0.2,1.2,0.5c0.6,0.6,0.6,1.4,0.2,2.1
	l0.9,1c1-1.2,0.9-2.9-0.2-4C13.6,5.3,12.8,5,12,5V3.8L10.1,5.6z"/>
<path class="st0" d="M8.1,21.2H7.3v-5l-2.3,2.3l-0.6-0.6l3.3-3.3l3.3,3.3l-0.6,0.6l-2.3-2.3V21.2z"/>
<path class="st0" d="M15.9,14.6h0.8v5l2.3-2.3l0.6,0.6l-3.3,3.3L13,17.9l0.6-0.6l2.3,2.3V14.6z"/>
</svg>
