<?xml version="1.0" encoding="utf-8"?>
<!-- Generator: Adobe Illustrator 21.0.2, SVG Export Plug-In . SVG Version: 6.00 Build 0)  -->
<svg version="1.1" id="Calque_1" xmlns="http://www.w3.org/2000/svg" xmlns:xlink="http://www.w3.org/1999/xlink" x="0px" y="0px"
	 viewBox="0 0 24 24" style="enable-background:new 0 0 24 24;" xml:space="preserve">
<style type="text/css">
	.st0{fill:#FFFFFF;}
</style>
<path class="st0" d="M9,11.7c-0.7,0-1.3,0.6-1.3,1.3s0.6,1.3,1.3,1.3s1.3-0.6,1.3-1.3S9.7,11.7,9,11.7 M15,11.7
	c-0.7,0-1.3,0.6-1.3,1.3s0.6,1.3,1.3,1.3s1.3-0.6,1.3-1.3S15.7,11.7,15,11.7 M12,2C6.5,2,2,6.5,2,12s4.5,10,10,10s10-4.5,10-10
	S17.5,2,12,2 M12,20c-4.4,0-8-3.6-8-8c0-0.3,0-0.6,0.1-0.9c2.4-1.1,4.2-3,5.2-5.4c1.8,2.6,4.8,4.2,8.2,4.2c0.8,0,1.5-0.1,2.3-0.3
	c0.2,0.7,0.3,1.5,0.3,2.3C20,16.4,16.4,20,12,20z"/>
</svg>
