<?xml version="1.0" encoding="utf-8"?>
<!-- Generator: Adobe Illustrator 21.0.2, SVG Export Plug-In . SVG Version: 6.00 Build 0)  -->
<svg version="1.1" id="Calque_3" xmlns="http://www.w3.org/2000/svg" xmlns:xlink="http://www.w3.org/1999/xlink" x="0px" y="0px"
	 viewBox="0 0 24 24" style="enable-background:new 0 0 24 24;" xml:space="preserve">
<style type="text/css">
	.st0{fill:#FFFFFF;}
</style>
<path class="st0" d="M12,9h2V6h3V4h-3V1h-2v3H9v2h3 M8,18c-1.1,0-2,0.9-2,2s0.9,2,2,2s2-0.9,2-2S9.1,18,8,18 M18,18
	c-1.1,0-2,0.9-2,2s0.9,2,2,2c1.1,0,2-0.9,2-2S19.1,18,18,18 M8.2,14.7l0-0.1L9.1,13h7.4c0.8,0,1.4-0.4,1.8-1l3.9-7l-1.7-1h0l-1.1,2
	l-2.8,5h-7l-0.1-0.3L7.2,6L6.2,4L5.3,2H2v2h2l3.6,7.6L6.3,14C6.1,14.3,6,14.6,6,15c0,1.1,0.9,2,2,2h12v-2H8.4
	C8.3,15,8.2,14.9,8.2,14.7z"/>
</svg>
