<?xml version="1.0" encoding="utf-8"?>
<!-- Generator: Adobe Illustrator 21.0.2, SVG Export Plug-In . SVG Version: 6.00 Build 0)  -->
<svg version="1.1" id="Calque_1" xmlns="http://www.w3.org/2000/svg" xmlns:xlink="http://www.w3.org/1999/xlink" x="0px" y="0px"
	 viewBox="0 0 24 24" style="enable-background:new 0 0 24 24;" xml:space="preserve">
<style type="text/css">
	.st0{fill:#FFFFFF;}
</style>
<path class="st0" d="M7.7,10l8,8H6c-2.2,0-4-1.8-4-4s1.8-4,4-4 M3,5.3L5.8,8C2.6,8.1,0,10.8,0,14c0,3.3,2.7,6,6,6h11.7l2,2l1.3-1.3
	L4.3,4 M19.4,10c-0.7-3.4-3.7-6-7.4-6c-1.5,0-2.9,0.4-4,1.2l1.4,1.5C10.2,6.2,11.1,6,12,6c3,0,5.5,2.5,5.5,5.5V12H19
	c1.7,0,3,1.3,3,3c0,1.1-0.6,2.1-1.6,2.6l1.4,1.4c1.3-0.9,2.1-2.4,2.1-4.1C24,12.4,22,10.2,19.4,10z"/>
</svg>
