<?xml version="1.0" encoding="utf-8"?>
<!-- Generator: Adobe Illustrator 21.0.2, SVG Export Plug-In . SVG Version: 6.00 Build 0)  -->
<svg version="1.1" id="Calque_1" xmlns="http://www.w3.org/2000/svg" xmlns:xlink="http://www.w3.org/1999/xlink" x="0px" y="0px"
	 viewBox="0 0 24 24" style="enable-background:new 0 0 24 24;" xml:space="preserve">
<style type="text/css">
	.st0{fill:#FFF;}
</style>
<path class="st0" d="M9,4C6.8,4,5,5.8,5,8s1.8,4,4,4s4-1.8,4-4S11.2,4,9,4 M9,14c-2.7,0-8,1.3-8,4v2h11.1C12,19.7,12,19.3,12,19
	c0-1.5,0.5-3,1.4-4.2C11.9,14.3,10.2,14,9,14 M18,14c-0.1,0-0.2,0.1-0.3,0.2l-0.2,1.3c-0.3,0.1-0.6,0.3-0.8,0.5l-1.2-0.5
	c-0.1,0-0.2,0-0.3,0.1l-1,1.7c-0.1,0.1,0,0.2,0.1,0.3l1.1,0.8c0,0.2,0,0.3,0,0.5s0,0.3,0,0.5l-1.1,0.8c-0.1,0.1-0.1,0.2-0.1,0.3
	l1,1.7c0.1,0.1,0.2,0.1,0.3,0.1l1.2-0.5c0.3,0.2,0.5,0.4,0.8,0.5l0.2,1.3c0,0.1,0.1,0.2,0.3,0.2h2c0.1,0,0.2-0.1,0.2-0.2l0.2-1.3
	c0.3-0.1,0.6-0.3,0.8-0.5l1.2,0.5c0.1,0,0.3,0,0.3-0.1l1-1.7c0.1-0.1,0-0.2-0.1-0.3l-1.1-0.8c0-0.2,0-0.3,0-0.5s0-0.3,0-0.5l1.1-0.8
	c0.1-0.1,0.1-0.2,0.1-0.3l-1-1.7c-0.1-0.1-0.2-0.1-0.3-0.1L21.3,16c-0.3-0.2-0.5-0.4-0.9-0.5l-0.2-1.3c0-0.1-0.1-0.2-0.2-0.2
	 M19,17.5c0.8,0,1.5,0.7,1.5,1.5s-0.7,1.5-1.5,1.5c-0.8,0-1.5-0.7-1.5-1.5C17.5,18.2,18.2,17.5,19,17.5z"/>
</svg>
