<?xml version="1.0" encoding="utf-8"?>
<!-- Generator: Adobe Illustrator 21.0.2, SVG Export Plug-In . SVG Version: 6.00 Build 0)  -->
<svg version="1.1" id="Calque_1" xmlns="http://www.w3.org/2000/svg" xmlns:xlink="http://www.w3.org/1999/xlink" x="0px" y="0px"
	 viewBox="0 0 24 24" style="enable-background:new 0 0 24 24;" xml:space="preserve">
<style type="text/css">
	.st0{fill:#FFFFFF;}
</style>
<path class="st0" d="M17,18c-1.1,0-2,0.9-2,2c0,1.1,0.9,2,2,2s2-0.9,2-2C19,18.9,18.1,18,17,18 M1,2v2h2l3.6,7.6L5.2,14
	C5.1,14.3,5,14.6,5,15c0,1.1,0.9,2,2,2h12v-2H7.4c-0.1,0-0.3-0.1-0.3-0.3c0-0.1,0-0.1,0-0.1L8.1,13h7.4c0.7,0,1.4-0.4,1.7-1l3.6-6.5
	C21,5.3,21,5.2,21,5c0-0.6-0.4-1-1-1H5.2L4.3,2 M7,18c-1.1,0-2,0.9-2,2c0,1.1,0.9,2,2,2s2-0.9,2-2C9,18.9,8.1,18,7,18z"/>
</svg>
