<?xml version="1.0" encoding="utf-8"?>
<!-- Generator: Adobe Illustrator 21.0.2, SVG Export Plug-In . SVG Version: 6.00 Build 0)  -->
<svg version="1.1" id="Calque_1" xmlns="http://www.w3.org/2000/svg" xmlns:xlink="http://www.w3.org/1999/xlink" x="0px" y="0px"
	 viewBox="0 0 24 24" style="enable-background:new 0 0 24 24;" xml:space="preserve">
<style type="text/css">
	.st0{fill:#FFFFFF;}
</style>
<path class="st0" d="M9.5,3C13.1,3,16,5.9,16,9.5c0,1.6-0.6,3.1-1.6,4.2l0.3,0.3h0.8l5,5L19,20.5l-5-5v-0.8l-0.3-0.3
	c-1.1,1-2.6,1.6-4.2,1.6C5.9,16,3,13.1,3,9.5S5.9,3,9.5,3 M9.5,5C7,5,5,7,5,9.5S7,14,9.5,14S14,12,14,9.5S12,5,9.5,5z"/>
</svg>
